<svg width="128" height="128" version="1.1" viewBox="0 0 128 128" xmlns="http://www.w3.org/2000/svg">
 <g stroke="#a4814c">
  <path fill="#a4814c" stroke-width="3" d="m108 34.1c-5.61-2.41-1.74-13.3 2.05-6.25 0.707 1.86 1.92 7.82-2.05 6.25z" />
  <path fill="none" stroke-width="10" d="m89.1 94.3-6.32-18.3s-12.9 0.0579-19.3-0.16c-4.01 0.0024-8.02 0.0049-12 0.0071-2.59 6.27-5.46 12.4-7.72 18.8 8.97 1.66 15.7 2.21 24.8 2.35 7.1429-0.43557 14.932-1.1228 20.54-2.6971z"/>
  <path fill="none" stroke-width="10" d="m125 100c-0.66-3.85-4.4-13.1-4.4-13.1l-15.2 3.25s-5.4-29.6-7.68-43.9c2.16-4.9 8.47 3.38 11.2 5.33 3.1 3.35 6.19 10.3 11.3 5.41 0.393-5.45 0.0558-11.3 0.168-16.9v-24.4c-2.68-4.35-7.91-2.17-11.9-1.37-12.2 2.75-24.5 7.98-32.2 18.2-2.3064 2.3139-2.46 6.71-5.31 7.3-12.8 0.188-25.6 0.377-38.4 0.565-4.5 2.07-7.57 5.98-10.3 10-2.92 3.9-12.7 6.96-5.2 9.9 3.7 3.41 15.7-2.64 13.3 5.1-0.869 9.48-2.36 16.2-3.45 25.6-5.42-1.26-11.5-2.97-16-5.5-2.38 4.69-5.1 9.23-7.07 14.1 19.4 8.59 40.4 14 61.7 14.5 34.066-1.2992 43.122-5.7386 59.442-14.085z" />
 </g>
</svg>
